<svg viewBox="0 0 300 300" xmlns="http://www.w3.org/2000/svg" width="300" height="300">
  <defs>
    <radialGradient id="bg" cx="25%" cy="25%" r="65%">
      <stop offset="0%" stop-color="#ede9fe"/>
      <stop offset="100%" stop-color="#ffffff"/>
    </radialGradient>
    <filter id="glow">
      <feGaussianBlur stdDeviation="7" result="b"/>
      <feMerge><feMergeNode in="b"/><feMergeNode in="SourceGraphic"/></feMerge>
    </filter>
  </defs>
  <rect width="300" height="300" fill="url(#bg)"/>
  <g transform="translate(150,128) scale(4) translate(-24,-23)" filter="url(#glow)">
    <path fill="#863bff" d="M25.946 44.938c-.664.845-2.021.375-2.021-.698V33.937a2.26 2.26 0 0 0-2.262-2.262H10.287c-.92 0-1.456-1.04-.92-1.788l7.48-10.471c1.07-1.497 0-3.578-1.842-3.578H1.237c-.92 0-1.456-1.04-.92-1.788L10.013.474c.214-.297.556-.474.92-.474h28.894c.92 0 1.456 1.04.92 1.788l-7.48 10.471c-1.07 1.498 0 3.579 1.842 3.579h11.377c.943 0 1.473 1.088.89 1.83L25.947 44.94z"/>
    <ellipse cx="34" cy="8" rx="5" ry="9" fill="#b4a7ff" opacity="0.4" transform="rotate(38,34,8)"/>
  </g>
  <text x="150" y="244" text-anchor="middle" font-family="system-ui,-apple-system,sans-serif" font-size="17" font-weight="900" fill="#3730a3" letter-spacing="-0.4">LETUS Task Watcher</text>
  <text x="150" y="266" text-anchor="middle" font-family="system-ui,-apple-system,sans-serif" font-size="11.5" font-weight="700" fill="#6366f1">課題期限を自動収集・通知</text>
</svg>
